<svg width="57" height="56" viewBox="0 0 57 56" fill="none" xmlns="http://www.w3.org/2000/svg">
<g clip-path="url(#clip0)">
<path d="M21.4237 48.1392C12.8224 44.7268 6.7832 36.3176 6.7832 26.507C6.7832 13.6495 17.2146 3.22949 30.086 3.22949C42.9575 3.22949 53.3889 13.6495 53.3889 26.507C53.3889 39.3644 42.9575 49.7844 30.086 49.7844C28.744 49.7844 27.4019 49.6626 26.1209 49.4798" stroke="black" stroke-width="1.8" stroke-miterlimit="10" stroke-linecap="round"/>
<path d="M1.41504 55.086L13.7985 43.1426" stroke="black" stroke-width="1.8" stroke-miterlimit="10" stroke-linecap="round"/>
<path d="M55.5849 45.58C51.7418 45.58 49.1006 45.2234 45.5625 44.1875" stroke="black" stroke-width="1.8" stroke-miterlimit="10" stroke-linecap="round"/>
<path d="M12.75 10.9375C11 7.875 10.125 5.07957 10.125 0.875" stroke="black" stroke-width="1.8" stroke-miterlimit="10" stroke-linecap="round"/>
<path d="M55.5853 38.634C53.9382 38.634 52.1441 38.4895 50.375 38.0625" stroke="black" stroke-width="1.8" stroke-miterlimit="10" stroke-linecap="round"/>
<path d="M18.0632 5.767C17.5622 4.8125 17.125 2.1875 17.125 0.875" stroke="black" stroke-width="1.8" stroke-miterlimit="10" stroke-linecap="round"/>
<path d="M20.6309 26.2023L21.7899 25.2273L22.5829 26.1414L21.4239 27.1163L20.6309 26.2023ZM22.5829 24.557C22.8879 24.3133 23.1319 24.1914 23.437 24.0695C23.742 24.0086 24.047 24.0086 24.474 24.1305C24.596 24.1914 24.718 24.2524 24.901 24.3133C25.084 24.3742 25.267 24.4352 25.45 24.4961C25.633 24.557 25.816 24.557 25.9991 24.557C26.1821 24.557 26.3651 24.4352 26.5481 24.3133C26.6701 24.1914 26.7311 24.1305 26.7921 24.0086C26.8531 23.8867 26.8531 23.7649 26.8531 23.643C26.8531 23.5211 26.8531 23.3993 26.7921 23.2774C26.7311 23.1555 26.6701 23.0336 26.6091 22.9118C26.4871 22.7899 26.3651 22.668 26.2431 22.6071C26.1211 22.5462 25.9991 22.4852 25.877 22.4852C25.755 22.4852 25.633 22.4243 25.45 22.4243C25.328 22.4243 25.206 22.4243 25.084 22.4243L24.962 21.3274C25.206 21.2665 25.45 21.2056 25.694 21.2056C25.938 21.2056 26.1821 21.2665 26.3651 21.3274C26.6091 21.3884 26.7921 21.5102 26.9751 21.6321C27.1581 21.754 27.3411 21.9368 27.5241 22.1196C27.7071 22.3633 27.8291 22.5462 27.9511 22.8508C28.0731 23.0946 28.1341 23.3993 28.1341 23.643C28.1341 23.9477 28.0731 24.1914 27.9511 24.4961C27.8291 24.8008 27.6461 25.0445 27.3411 25.2883C27.1581 25.4101 26.9751 25.532 26.7921 25.5929C26.6091 25.6539 26.4261 25.7148 26.2431 25.7148C26.0601 25.7148 25.877 25.7148 25.694 25.7148C25.511 25.6539 25.328 25.6539 25.145 25.5929C24.962 25.532 24.84 25.4711 24.657 25.4101C24.474 25.3492 24.352 25.2883 24.169 25.2883C23.986 25.2883 23.864 25.2273 23.742 25.2883C23.62 25.2883 23.437 25.3492 23.315 25.4711L22.5829 24.557Z" fill="black"/>
<path d="M24.5962 30.6507L25.6332 29.5538L26.5483 30.346L25.5112 31.5038L24.5962 30.6507ZM26.3043 28.7617C26.5483 28.5179 26.7923 28.2742 27.0973 28.1523C27.4023 28.0304 27.7073 27.9695 28.1343 28.0914C28.2563 28.0914 28.4393 28.1523 28.5613 28.2132C28.7443 28.2742 28.9273 28.2742 29.1104 28.3351C29.2934 28.3351 29.4764 28.3351 29.6594 28.2742C29.8424 28.2132 30.0254 28.1523 30.1474 27.9695C30.2694 27.8476 30.3304 27.7258 30.3304 27.6039C30.3914 27.482 30.3914 27.3601 30.3304 27.2383C30.3304 27.1164 30.2694 26.9945 30.2084 26.8727C30.1474 26.7508 30.0864 26.6289 29.9644 26.568C29.8424 26.4461 29.7204 26.3852 29.5984 26.3242C29.4764 26.2633 29.3544 26.2633 29.1714 26.2633C29.0493 26.2633 28.9273 26.2633 28.7443 26.2633C28.6223 26.2633 28.5003 26.3242 28.3783 26.3242L28.1343 25.1664C28.3783 25.0446 28.5613 24.9836 28.8053 24.9836C29.0494 24.9836 29.2934 24.9836 29.4764 25.0446C29.7204 25.1055 29.9034 25.1664 30.1474 25.2883C30.3914 25.4102 30.5744 25.5321 30.7574 25.7149C30.9404 25.8977 31.1234 26.1414 31.3064 26.3852C31.4284 26.6289 31.5504 26.8727 31.6114 27.1773C31.6724 27.482 31.6114 27.7258 31.5504 28.0304C31.4894 28.3351 31.3064 28.6398 31.0624 28.8835C30.8794 29.0663 30.7574 29.1882 30.5744 29.3101C30.3914 29.432 30.2694 29.4929 30.0864 29.4929C29.9034 29.5538 29.7204 29.5538 29.5374 29.5538C29.3544 29.5538 29.1714 29.5538 28.9883 29.4929C28.8053 29.432 28.6833 29.432 28.5003 29.371C28.3173 29.3101 28.1953 29.3101 28.0123 29.3101C27.8293 29.3101 27.7073 29.3101 27.5853 29.371C27.4633 29.432 27.2803 29.4929 27.1583 29.6148L26.3043 28.7617Z" fill="black"/>
<path d="M29.2324 34.5506L30.0865 33.2709L31.1235 33.9412L30.2695 35.2208L29.2324 34.5506ZM30.6355 32.4178C30.8185 32.1131 31.0625 31.8694 31.3065 31.6866C31.5505 31.5038 31.9165 31.4428 32.3435 31.4428C32.4655 31.4428 32.6485 31.4428 32.8316 31.5038C33.0146 31.5647 33.1976 31.5038 33.3806 31.5038C33.5636 31.5038 33.7466 31.4428 33.9296 31.3819C34.1126 31.321 34.2346 31.1991 34.3566 31.0163C34.4176 30.8944 34.4786 30.7725 34.5396 30.6507C34.5396 30.5288 34.5396 30.4069 34.5396 30.2851C34.5396 30.1632 34.4176 30.0413 34.3566 29.9194C34.2956 29.7976 34.1736 29.7366 34.0516 29.6757C33.9296 29.6148 33.8076 29.5538 33.6246 29.4929C33.5026 29.4929 33.3196 29.4319 33.1976 29.4929C33.0756 29.5538 32.9536 29.5538 32.8316 29.5538C32.7095 29.6148 32.5875 29.6148 32.4655 29.6757L32.0385 28.6398C32.2215 28.5179 32.4655 28.396 32.7095 28.3351C32.9536 28.2742 33.1976 28.2742 33.3806 28.2742C33.6246 28.2742 33.8686 28.3351 34.0516 28.396C34.2346 28.457 34.4786 28.5788 34.7226 28.7007C34.9666 28.8835 35.1496 29.0663 35.3326 29.2491C35.5156 29.4319 35.6377 29.7366 35.6987 29.9804C35.7597 30.2241 35.8207 30.5288 35.7597 30.8335C35.6987 31.1381 35.5766 31.4428 35.3936 31.7475C35.2716 31.9303 35.1496 32.1131 34.9666 32.235C34.7836 32.3569 34.6616 32.4178 34.4786 32.4787C34.2956 32.5397 34.1126 32.6006 33.9296 32.6006C33.7466 32.6006 33.5636 32.6006 33.3196 32.6006C33.1366 32.6006 32.9536 32.6006 32.8316 32.5397C32.6485 32.5397 32.5265 32.5397 32.3435 32.5397C32.1605 32.5397 32.0385 32.6006 31.9165 32.6615C31.7945 32.7225 31.7335 32.9053 31.6115 33.0881L30.6355 32.4178Z" fill="black"/>
<path d="M8.91797 16.7573C13.9811 32.235 24.2905 42.5332 39.7241 47.7127" stroke="black" stroke-width="1.8" stroke-miterlimit="10" stroke-linecap="round"/>
<path d="M52.8399 31.5037C38.3214 27.7866 27.951 18.2806 23.1929 4.26538" stroke="black" stroke-width="1.8" stroke-miterlimit="10" stroke-linecap="round"/>
</g>
<defs>
<clipPath id="clip0">
<rect width="56" height="56" fill="white" transform="translate(0.5)"/>
</clipPath>
</defs>
</svg>
