<svg width="57" height="56" viewBox="0 0 57 56" fill="none" xmlns="http://www.w3.org/2000/svg">
<g clip-path="url(#clip0)">
<path d="M28.5 11.2123C17.1607 11.2123 7.96826 20.4053 7.96826 31.7454C7.96826 43.0855 17.1607 52.2785 28.5 52.2785C39.8394 52.2785 49.0318 43.0855 49.0318 31.7454C49.019 20.4106 39.8342 11.2251 28.5 11.2123ZM28.5 50.4119C18.1914 50.4119 9.83472 42.0546 9.83472 31.7454C9.83472 21.4361 18.1914 13.0789 28.5 13.0789C38.8086 13.0789 47.1654 21.4361 47.1654 31.7454C47.1535 42.0497 38.8037 50.4001 28.5 50.4119Z" fill="black"/>
<path d="M44.3898 4.96021L41.4117 0.433546C41.2392 0.171376 40.9463 0.0135498 40.6325 0.0135498H16.3676C16.0537 0.0135498 15.7609 0.171376 15.5884 0.433546L12.6103 4.96021C2.51793 11.9173 -1.87578 24.6308 1.76712 36.3352C5.41003 48.0396 16.2425 56.0135 28.5 56.0135C40.7575 56.0135 51.59 48.0396 55.2329 36.3352C58.8758 24.6308 54.4821 11.9173 44.3898 4.96021ZM40.1294 1.88023L41.9717 4.68021H35.9474C35.9544 4.60966 35.9526 4.53846 35.9419 4.46835L35.3371 1.88023H40.1294ZM16.8669 1.88023H21.6592L21.0544 4.46835C21.0449 4.53857 21.0443 4.60977 21.0526 4.68021H15.0283L16.8669 1.88023ZM53.4354 35.8209C50.0224 46.7235 39.9236 54.1453 28.5 54.1464C17.0764 54.1453 6.97758 46.7234 3.56457 35.8209C0.151557 24.9184 4.21574 13.0624 13.5994 6.54689H26.6334C27.1489 6.54689 27.5667 6.12908 27.5667 5.6136C27.5667 5.09813 27.1489 4.68032 26.6334 4.68032H22.9256L23.5788 1.88034H33.4201L34.0733 4.68032H30.3665C29.851 4.68032 29.4332 5.09813 29.4332 5.6136C29.4332 6.12908 29.8511 6.54689 30.3665 6.54689H43.4005C52.7841 13.0624 56.8483 24.9183 53.4354 35.8209Z" fill="black"/>
</g>
<defs>
<clipPath id="clip0">
<rect width="56" height="56" fill="white" transform="translate(0.5)"/>
</clipPath>
</defs>
</svg>
