<svg width="57" height="56" viewBox="0 0 57 56" fill="none" xmlns="http://www.w3.org/2000/svg">
<g clip-path="url(#clip0)">
<path d="M55.917 32.5313C54.8523 28.161 52.2632 24.302 48.6267 21.6653C45.1651 19.1555 40.9501 17.8847 36.7092 18.0604C34.7544 13.8651 31.3507 10.5502 27.0677 8.6893C26.6473 8.50686 26.1587 8.69947 25.9759 9.11969C25.7934 9.54002 25.986 10.0288 26.4063 10.2115C30.4803 11.9815 33.6829 15.1912 35.4244 19.2492C35.8056 20.1375 36.1145 21.0628 36.3427 21.9996C36.4033 22.2483 36.4592 22.5041 36.5135 22.7818C36.5135 22.7817 36.5135 22.782 36.5135 22.7818C37.3444 27.0223 36.5628 31.3957 34.3125 35.0955C32.1851 38.5931 28.9201 41.202 25.0656 42.5012C24.996 42.343 24.9295 42.1833 24.866 42.0223C24.8652 42.0205 24.8646 42.0187 24.8639 42.0168C24.7417 41.7071 24.6315 41.3921 24.5319 41.0733C24.524 41.0477 24.516 41.0221 24.5082 40.9964C24.4622 40.8458 24.4183 40.6943 24.3774 40.5419C24.3764 40.5381 24.3754 40.5343 24.3744 40.5304C31.624 38.0973 36.0083 30.5488 34.4246 22.9852C34.4246 22.9853 34.4246 22.985 34.4246 22.9852C34.3855 22.7986 34.3504 22.642 34.3142 22.4934C34.0388 21.3632 33.6362 20.2677 33.1174 19.2373C33.1164 19.2351 33.1152 19.2332 33.1141 19.231C33.1106 19.2241 33.1069 19.2174 33.1032 19.2106C31.58 16.2004 29.0518 13.7496 25.9804 12.3082C24.508 11.6172 22.9365 11.1725 21.3347 10.9808L27.2292 5.50178C27.5281 5.22397 27.5807 4.77017 27.3533 4.43144L27.3493 4.42564C27.3494 4.42575 27.3492 4.42553 27.3493 4.42564L24.6241 0.367172C24.47 0.137703 24.2117 0 23.9353 0H15.1033C14.8268 0 14.5685 0.137703 14.4143 0.367172L11.6851 4.43166C11.4577 4.77039 11.5102 5.22419 11.8091 5.502L17.7031 10.9806C17.103 11.0522 16.5057 11.1591 15.9149 11.3029C7.75699 13.2904 2.7369 21.5444 4.72414 29.7023C5.54346 33.0656 7.50467 36.0754 10.2465 38.1775C12.7655 40.1087 15.8494 41.2121 18.999 41.32C19.0141 41.3851 19.0294 41.4496 19.0449 41.5138C19.0819 41.6656 19.1211 41.8164 19.1615 41.9664C19.1709 42.0012 19.181 42.036 19.1905 42.0708C19.2235 42.1908 19.2576 42.3102 19.2928 42.429C19.3025 42.4617 19.3125 42.4944 19.3224 42.5271C19.3609 42.6543 19.4006 42.7808 19.4415 42.9066C19.4485 42.9283 19.4555 42.9499 19.4626 42.9716C19.5117 43.1205 19.5622 43.2686 19.6147 43.4156C15.9649 43.4341 12.3694 42.2908 9.38056 40.1347C6.04473 37.7283 3.67053 34.1987 2.69556 30.1964C1.72234 26.2014 2.20348 21.9821 4.0506 18.3155C5.87728 14.6894 8.92359 11.8105 12.6286 10.2093C13.0492 10.0274 13.2428 9.53903 13.061 9.11837C12.8791 8.69783 12.3907 8.50391 11.9701 8.68591C7.90892 10.4413 4.57003 13.596 2.56857 17.5689C0.544261 21.5875 0.0168547 26.2115 1.08326 30.5892C2.15175 34.9752 4.75378 38.8431 8.40975 41.4806C11.6546 43.8214 15.5526 45.0756 19.515 45.0755C19.7729 45.0755 20.0312 45.0686 20.2895 45.058C23.4044 51.7276 30.1621 56.0001 37.4814 56C38.9638 56 40.4695 55.8247 41.9722 55.4586C52.1379 52.9821 58.3935 42.697 55.917 32.5313ZM35.7304 35.9579C38.017 32.1985 38.9187 27.8043 38.3119 23.4794C41.0121 23.6468 43.6436 24.6323 45.7993 26.3027C48.247 28.1994 49.9289 30.7957 50.6636 33.8112C52.4344 41.0802 47.9614 48.4344 40.6924 50.2052C37.1713 51.0631 33.5268 50.4983 30.4303 48.615C28.5137 47.4493 26.9497 45.8645 25.8322 43.9913C29.9539 42.5415 33.4429 39.7191 35.7304 35.9579ZM24.0413 38.8896C23.6174 35.8698 24.2185 32.8121 25.7814 30.1514C27.4168 27.3675 29.9425 25.2914 32.9573 24.2304C33.8462 30.5893 30.0967 36.754 24.0413 38.8896ZM15.5455 1.65955H23.4929L25.1037 4.05836H13.9348L15.5455 1.65955ZM14.4789 5.71791H24.5595L19.5192 10.403L14.4789 5.71791ZM18.6868 39.6422C16.0112 39.4776 13.4029 38.5063 11.2563 36.8605C8.77845 34.9607 7.07734 32.3496 6.33676 29.3094C4.56598 22.0406 9.03898 14.6862 16.3079 12.9153C19.3481 12.1746 22.4491 12.4844 25.2756 13.8108C27.7245 14.96 29.7839 16.8294 31.1626 19.1299C26.9046 20.6272 23.343 23.5735 21.0607 27.5133C18.9177 31.2126 18.0981 35.4565 18.6868 39.6422ZM41.5795 53.8462C40.2076 54.1804 38.8347 54.3403 37.4815 54.3402C30.5913 54.3397 24.2457 50.1897 21.5335 43.7699C21.5039 43.6996 21.4743 43.6294 21.4455 43.5587C21.4339 43.5302 21.4227 43.5014 21.4113 43.4728C21.3759 43.3847 21.3409 43.2963 21.3071 43.2075C21.3021 43.1943 21.2973 43.1809 21.2923 43.1676C21.2535 43.0653 21.2155 42.9627 21.1787 42.8597C21.1775 42.8564 21.1764 42.853 21.1752 42.8497C21.1355 42.7385 21.0969 42.6268 21.0595 42.5147C21.0593 42.5141 21.0591 42.5135 21.0589 42.5129C21.0209 42.3992 20.9841 42.2852 20.9486 42.171C20.9461 42.1629 20.9438 42.1547 20.9413 42.1466C20.9084 42.04 20.8762 41.9334 20.8454 41.8264C20.8353 41.7914 20.8259 41.7561 20.8159 41.7209C20.7931 41.6399 20.7702 41.559 20.7486 41.4777C20.7171 41.3594 20.6867 41.2405 20.6576 41.121C20.628 40.9999 20.6004 40.8786 20.5736 40.7572C20.5632 40.7099 20.553 40.6616 20.5428 40.6133C20.5311 40.5581 20.5199 40.5029 20.5087 40.4476C20.5014 40.4113 20.494 40.3756 20.4867 40.3385C20.4857 40.3335 20.4842 40.3287 20.4832 40.3238C19.6815 36.213 20.3858 31.9893 22.4968 28.3451C24.6187 24.6821 27.9519 21.9605 31.934 20.6195C32.2135 21.2551 32.4448 21.9145 32.6253 22.5893C29.144 23.7556 26.2258 26.1186 24.3508 29.3105C22.4208 32.5958 21.798 36.4206 22.5759 40.1345C22.5759 40.1343 22.5759 40.1347 22.5759 40.1345C22.5762 40.1364 22.5768 40.1387 22.5771 40.1405C22.5909 40.2062 22.6049 40.2719 22.6195 40.3375C22.6421 40.4398 22.664 40.5351 22.6864 40.6268C22.7192 40.7614 22.7541 40.8952 22.7903 41.0284C22.7991 41.061 22.8087 41.0935 22.8178 41.1261C22.8467 41.2296 22.8763 41.3327 22.9072 41.4352C22.9165 41.4661 22.9262 41.4969 22.9358 41.5277C22.9692 41.6359 23.0037 41.7436 23.0392 41.8508C23.0464 41.8724 23.0536 41.8938 23.0609 41.9152C23.1025 42.0389 23.1458 42.1619 23.1906 42.284C23.1922 42.2884 23.1937 42.2928 23.1954 42.2972C24.3771 45.5167 26.5948 48.2241 29.5683 50.0327C31.984 51.502 34.6965 52.2562 37.4535 52.2561C38.6627 52.2561 39.8808 52.111 41.0856 51.8174C49.2436 49.83 54.2637 41.5761 52.2763 33.4181C51.4519 30.0339 49.5637 27.1197 46.816 24.9907C44.288 23.0319 41.1764 21.9097 38.0015 21.8008C37.9864 21.7355 37.9711 21.6708 37.9553 21.6065C37.7991 20.9651 37.6083 20.3285 37.3852 19.7039C41.0484 19.682 44.6584 20.8378 47.6526 23.0088C50.9707 25.4145 53.333 28.9358 54.3047 32.924C56.5644 42.2007 50.856 51.5863 41.5795 53.8462Z" fill="black"/>
</g>
<defs>
<clipPath id="clip0">
<rect width="56" height="56" fill="white" transform="translate(0.5)"/>
</clipPath>
</defs>
</svg>
