<svg width="126" height="24" viewBox="0 0 126 24" fill="none" xmlns="http://www.w3.org/2000/svg">
<g clip-path="url(#clip0)">
<path fill-rule="evenodd" clip-rule="evenodd" d="M23.9234 5.30853C22.8184 4.20348 21.0204 4.20352 19.9154 5.30853L19.6264 5.59754C19.5737 5.53756 19.5196 5.47846 19.4627 5.42152L18.5785 4.53734C18.5215 4.48035 18.4624 4.42631 18.4025 4.37359L18.6915 4.08458C19.7965 2.97957 19.7965 1.18163 18.6915 0.0766228L18.6148 0L17.6207 0.994128L17.6973 1.07075C18.2542 1.62759 18.2542 2.53361 17.6973 3.09045L17.1375 3.65025C16.7746 3.53145 16.3916 3.46874 15.9987 3.46874C15.0241 3.46874 14.1079 3.84825 13.4188 4.53734C12.8213 5.1349 12.4757 5.88997 12.3802 6.67012L10.8645 5.1544C9.82248 4.11233 8.43699 3.53847 6.9633 3.53847C5.48961 3.53847 4.10417 4.11233 3.0621 5.1544L1.57445 6.64205L5.91359 10.9812L3.58745 13.3073C2.52724 14.3675 1.82943 15.7083 1.56948 17.185C1.33849 18.4971 1.46928 19.8265 1.94631 21.0596L0 23.0059L0.994128 24L2.94072 22.0534C3.7772 22.377 4.65768 22.5417 5.54735 22.5417C5.96913 22.5417 6.39306 22.5048 6.81503 22.4305C8.29167 22.1706 9.63254 21.4727 10.6927 20.4125L13.0188 18.0864L17.358 22.4255L18.8456 20.9378C19.8877 19.8958 20.4615 18.5103 20.4615 17.0366C20.4615 15.5629 19.8876 14.1775 18.8456 13.1354L17.3316 11.6214C18.1361 11.5233 18.8806 11.1632 19.4627 10.5811C20.1518 9.89198 20.5313 8.97579 20.5313 8.00125C20.5313 7.60834 20.4686 7.22527 20.3498 6.86236L20.9095 6.30257C21.4663 5.74573 22.3724 5.74568 22.9292 6.30257L23.0059 6.37919L24 5.38506L23.9234 5.30853ZM4.05623 6.14852C4.83272 5.37203 5.86518 4.9444 6.9633 4.9444C8.06142 4.9444 9.09389 5.37203 9.87038 6.14852L13.3638 9.64201L12.0895 10.9163C11.5215 11.4842 10.7664 11.797 9.96322 11.797C9.16001 11.797 8.40489 11.4842 7.8369 10.9163L3.5627 6.64205L4.05623 6.14852ZM9.96326 13.203C10.2818 13.203 10.5951 13.1692 10.8993 13.1038C10.6011 14.4924 10.9767 15.997 12.0264 17.0907L11.3425 17.7745L6.22547 12.6575L6.90847 11.9745C7.73408 12.7673 8.81514 13.203 9.96326 13.203ZM3.31184 20.6882C2.82347 19.509 2.74633 18.2235 3.04434 17.0265L6.97352 20.9557C5.77652 21.2536 4.49108 21.1765 3.31184 20.6882ZM8.40072 20.3945L3.60549 15.5993C3.86512 15.1303 4.19078 14.6922 4.58162 14.3014L5.23139 13.6516L10.3484 18.7687L9.69862 19.4184C9.30782 19.8092 8.86974 20.1349 8.40072 20.3945ZM19.0556 17.0367C19.0556 18.1349 18.628 19.1673 17.8515 19.9438L17.358 20.4373L13.0838 16.1631C11.9113 14.9906 11.9113 13.0829 13.0838 11.9104L14.358 10.6361L17.8515 14.1296C18.628 14.9061 19.0556 15.9385 19.0556 17.0367ZM14.4125 8.70238C13.5387 7.82799 13.5388 6.40567 14.413 5.53146C14.8365 5.10791 15.3997 4.87466 15.9987 4.87466C16.5976 4.87466 17.1608 5.10795 17.5844 5.53146L18.4685 6.41565C19.3429 7.28999 19.3429 8.71269 18.4685 9.58704C18.045 10.0106 17.4819 10.2438 16.8828 10.2438C16.2841 10.2438 15.7211 10.0107 15.2977 9.58751L14.4125 8.70238Z" fill="#AC9182"/>
</g>
<path d="M30.928 12.448C30.928 11.4987 31.0667 10.6613 31.344 9.936C31.632 9.21067 32.016 8.608 32.496 8.128C32.9867 7.63733 33.552 7.26933 34.192 7.024C34.8427 6.77867 35.5307 6.656 36.256 6.656C36.9707 6.656 37.6427 6.77867 38.272 7.024C38.912 7.26933 39.472 7.63733 39.952 8.128C40.432 8.608 40.8107 9.21067 41.088 9.936C41.376 10.6613 41.52 11.4987 41.52 12.448C41.52 13.3973 41.376 14.2347 41.088 14.96C40.8107 15.6853 40.432 16.2933 39.952 16.784C39.472 17.264 38.912 17.6267 38.272 17.872C37.6427 18.1173 36.9707 18.24 36.256 18.24C35.5307 18.24 34.8427 18.1173 34.192 17.872C33.552 17.6267 32.9867 17.264 32.496 16.784C32.016 16.2933 31.632 15.6853 31.344 14.96C31.0667 14.2347 30.928 13.3973 30.928 12.448ZM32.56 12.448C32.56 13.12 32.6453 13.7333 32.816 14.288C32.9867 14.832 33.2267 15.296 33.536 15.68C33.856 16.064 34.24 16.3627 34.688 16.576C35.1467 16.7787 35.6587 16.88 36.224 16.88C36.7893 16.88 37.296 16.7787 37.744 16.576C38.192 16.3627 38.5707 16.064 38.88 15.68C39.2 15.296 39.4453 14.832 39.616 14.288C39.7867 13.7333 39.872 13.12 39.872 12.448C39.872 11.776 39.7867 11.168 39.616 10.624C39.4453 10.0693 39.2 9.6 38.88 9.216C38.5707 8.832 38.192 8.53867 37.744 8.336C37.296 8.12267 36.7893 8.016 36.224 8.016C35.6587 8.016 35.1467 8.12267 34.688 8.336C34.24 8.53867 33.856 8.832 33.536 9.216C33.2267 9.6 32.9867 10.0693 32.816 10.624C32.6453 11.168 32.56 11.776 32.56 12.448ZM51.5891 18C51.3545 17.6053 51.0825 17.1627 50.7731 16.672C50.4745 16.1813 50.1491 15.6747 49.7971 15.152C49.4451 14.6187 49.0771 14.08 48.6931 13.536C48.3198 12.992 47.9465 12.4693 47.5731 11.968C47.1998 11.456 46.8371 10.976 46.4851 10.528C46.1331 10.08 45.8078 9.68533 45.5091 9.344V18H43.9891V6.912H45.2211C45.7225 7.44533 46.2558 8.06933 46.8211 8.784C47.3971 9.488 47.9625 10.2187 48.5171 10.976C49.0825 11.7227 49.6105 12.4587 50.1011 13.184C50.6025 13.9093 51.0238 14.5547 51.3651 15.12V6.912H52.8851V18H51.5891ZM62.4618 16.656V18H55.7897V6.912H57.3417V16.656H62.4618ZM64.2466 6.912H65.7986V18H64.2466V6.912ZM76.3035 18C76.0688 17.6053 75.7968 17.1627 75.4875 16.672C75.1888 16.1813 74.8635 15.6747 74.5115 15.152C74.1595 14.6187 73.7915 14.08 73.4075 13.536C73.0342 12.992 72.6608 12.4693 72.2875 11.968C71.9142 11.456 71.5515 10.976 71.1995 10.528C70.8475 10.08 70.5222 9.68533 70.2235 9.344V18H68.7035V6.912H69.9355C70.4368 7.44533 70.9702 8.06933 71.5355 8.784C72.1115 9.488 72.6768 10.2187 73.2315 10.976C73.7968 11.7227 74.3248 12.4587 74.8155 13.184C75.3168 13.9093 75.7382 14.5547 76.0795 15.12V6.912H77.5995V18H76.3035ZM80.5041 18V6.912H87.2721V8.24H82.0561V11.536H86.6961V12.832H82.0561V16.672H87.6721V18H80.5041ZM92.7967 18.096C92.5727 18.096 92.3274 18.0907 92.0607 18.08C91.8047 18.0693 91.5434 18.0533 91.2767 18.032C91.0207 18.0107 90.7647 17.984 90.5087 17.952C90.2527 17.92 90.0181 17.8773 89.8047 17.824V7.072C90.0181 7.01867 90.2527 6.976 90.5087 6.944C90.7647 6.912 91.0207 6.88533 91.2767 6.864C91.5434 6.84267 91.8047 6.82667 92.0607 6.816C92.3167 6.80533 92.5567 6.8 92.7807 6.8C93.4207 6.8 94.0181 6.848 94.5727 6.944C95.1381 7.04 95.6234 7.20533 96.0287 7.44C96.4447 7.664 96.7701 7.96267 97.0047 8.336C97.2394 8.70933 97.3567 9.168 97.3567 9.712C97.3567 10.32 97.2127 10.8213 96.9247 11.216C96.6367 11.6 96.2527 11.888 95.7727 12.08C96.4234 12.272 96.9407 12.576 97.3247 12.992C97.7087 13.408 97.9007 13.9947 97.9007 14.752C97.9007 15.8613 97.4901 16.6987 96.6687 17.264C95.8581 17.8187 94.5674 18.096 92.7967 18.096ZM91.3407 12.832V16.736C91.4581 16.7467 91.5967 16.7573 91.7567 16.768C91.8954 16.7787 92.0554 16.7893 92.2367 16.8C92.4287 16.8 92.6474 16.8 92.8927 16.8C93.3514 16.8 93.7834 16.7733 94.1887 16.72C94.6047 16.656 94.9674 16.5493 95.2767 16.4C95.5861 16.2507 95.8314 16.0427 96.0127 15.776C96.2047 15.5093 96.3007 15.1733 96.3007 14.768C96.3007 14.4053 96.2314 14.1013 96.0927 13.856C95.9541 13.6 95.7514 13.3973 95.4847 13.248C95.2287 13.0987 94.9194 12.992 94.5567 12.928C94.1941 12.864 93.7887 12.832 93.3407 12.832H91.3407ZM91.3407 11.584H92.9727C93.3567 11.584 93.7194 11.5573 94.0607 11.504C94.4021 11.4507 94.6954 11.3547 94.9407 11.216C95.1967 11.0773 95.3941 10.896 95.5327 10.672C95.6821 10.448 95.7567 10.1653 95.7567 9.824C95.7567 9.504 95.6821 9.23733 95.5327 9.024C95.3834 8.8 95.1754 8.624 94.9087 8.496C94.6527 8.35733 94.3487 8.256 93.9967 8.192C93.6447 8.128 93.2714 8.096 92.8767 8.096C92.4821 8.096 92.1727 8.10133 91.9487 8.112C91.7247 8.12267 91.5221 8.13867 91.3407 8.16V11.584ZM100.246 18V6.912H107.014V8.24H101.798V11.536H106.438V12.832H101.798V16.672H107.414V18H100.246ZM109.547 18V6.912H116.315V8.24H111.099V11.536H115.739V12.832H111.099V16.672H116.715V18H109.547ZM121.423 16.896C123.045 16.896 123.855 16.3413 123.855 15.232C123.855 14.8907 123.781 14.6027 123.631 14.368C123.493 14.1227 123.301 13.9147 123.055 13.744C122.81 13.5627 122.527 13.408 122.207 13.28C121.898 13.152 121.567 13.024 121.215 12.896C120.81 12.7573 120.426 12.6027 120.063 12.432C119.701 12.2507 119.386 12.0427 119.119 11.808C118.853 11.5627 118.639 11.2747 118.479 10.944C118.33 10.6133 118.255 10.2133 118.255 9.744C118.255 8.77333 118.586 8.016 119.247 7.472C119.909 6.928 120.821 6.656 121.983 6.656C122.655 6.656 123.263 6.73067 123.807 6.88C124.362 7.01867 124.767 7.17333 125.023 7.344L124.527 8.608C124.303 8.46933 123.967 8.336 123.519 8.208C123.082 8.06933 122.57 8 121.983 8C121.685 8 121.407 8.032 121.151 8.096C120.895 8.16 120.671 8.256 120.479 8.384C120.287 8.512 120.133 8.67733 120.015 8.88C119.909 9.072 119.855 9.30133 119.855 9.568C119.855 9.86667 119.914 10.1173 120.031 10.32C120.149 10.5227 120.314 10.704 120.527 10.864C120.741 11.0133 120.986 11.152 121.263 11.28C121.551 11.408 121.866 11.536 122.207 11.664C122.687 11.856 123.125 12.048 123.519 12.24C123.925 12.432 124.271 12.6613 124.559 12.928C124.858 13.1947 125.087 13.5147 125.247 13.888C125.407 14.2507 125.487 14.6933 125.487 15.216C125.487 16.1867 125.13 16.9333 124.415 17.456C123.711 17.9787 122.714 18.24 121.423 18.24C120.986 18.24 120.581 18.208 120.207 18.144C119.845 18.0907 119.519 18.0267 119.231 17.952C118.943 17.8667 118.693 17.7813 118.479 17.696C118.277 17.6 118.117 17.52 117.999 17.456L118.463 16.176C118.709 16.3147 119.082 16.4693 119.583 16.64C120.085 16.8107 120.698 16.896 121.423 16.896Z" fill="#AC9182"/>
<defs>
<clipPath id="clip0">
<rect width="24" height="24" fill="white"/>
</clipPath>
</defs>
</svg>
