<svg width="56" height="56" viewBox="0 0 56 56" fill="none" xmlns="http://www.w3.org/2000/svg">
<path d="M55.8279 17.5724C46.1343 5.14308 46.5477 5.45447 46.0302 5.40372L30.8561 3.35984C27.0311 2.84458 24.4329 3.51428 23.1061 3.63426C22.6609 3.6942 22.3486 4.10381 22.4084 4.54907C22.4684 4.99433 22.8785 5.30725 23.3233 5.24677C24.6688 5.1234 27.0819 4.49351 30.6389 4.97235L41.059 6.37584C40.2792 6.53476 28.7802 8.87801 27.9998 9.03704L14.9409 6.37584L19.4548 5.76783C19.9 5.70789 20.2123 5.29829 20.1525 4.85302C20.0925 4.40765 19.6821 4.09527 19.2377 4.15532L9.97037 5.4035L9.96643 5.40405L9.95418 5.40569C9.94171 5.40744 9.92957 5.41018 9.91721 5.41247C9.90923 5.414 9.90102 5.4151 9.89315 5.41685C9.88648 5.41827 9.8798 5.41969 9.87324 5.42122C9.86395 5.42352 9.85476 5.42625 9.84557 5.42877C9.83135 5.43271 9.81713 5.43653 9.80313 5.44124C9.79734 5.44321 9.79187 5.44561 9.78607 5.44769C9.78356 5.44857 9.78104 5.44955 9.77863 5.45053C9.77054 5.4536 9.76212 5.45644 9.75413 5.45961C9.73948 5.46563 9.72526 5.4723 9.71104 5.47919C9.70481 5.48214 9.69868 5.48488 9.69255 5.48794C9.68566 5.49144 9.67899 5.49483 9.67232 5.49844C9.66587 5.50194 9.65974 5.50588 9.65329 5.50971C9.30001 5.71555 9.47249 5.7301 0.172046 17.5723C-0.0213278 17.8204 -0.0545776 18.1576 0.0869531 18.4385C0.414421 19.0882 -0.456529 17.8058 17.4972 41.6371C17.7678 41.9959 18.2779 42.0672 18.6367 41.7966C18.9953 41.526 19.0666 41.0159 18.7961 40.6571L3.02661 19.7561L15.769 23.7697C16.0746 24.5757 25.408 49.1934 25.5812 49.6501L21.091 43.6989C20.8204 43.3402 20.3104 43.2689 19.9516 43.5395C19.5928 43.8101 19.5216 44.3202 19.7921 44.6789C24.4938 50.9092 24.9782 51.5549 25.0117 51.5926C25.6057 52.2621 26.4272 52.6855 27.2129 52.818C27.3292 52.8378 28.6923 52.8374 28.8063 52.8152C29.797 52.6228 30.6338 52.0631 31.0289 51.5428L46.9094 30.4945C47.1799 30.1357 47.1086 29.6256 46.75 29.355C46.391 29.0846 45.8812 29.1559 45.6105 29.5145L30.4184 49.6506C30.9037 48.3705 39.8741 24.7104 40.2308 23.7698L52.9733 19.7562L47.8974 26.4836C47.6269 26.8423 47.6981 27.3525 48.0569 27.6231C48.4157 27.8937 48.9258 27.8223 49.1964 27.4636C56.0106 18.4233 55.6434 18.9713 55.9124 18.4399C56.0546 18.1587 56.0217 17.8208 55.8279 17.5724ZM27.9999 11.1015L37.8151 22.2987H18.1848L27.9999 11.1015ZM2.09234 17.7559L9.81035 7.85852L15.0429 21.8354L2.09234 17.7559ZM11.3397 7.30246C12.9506 7.6307 24.5012 9.98466 26.4646 10.3847L16.6747 21.5531L11.3397 7.30246ZM28.0898 51.2031H27.9102L17.5683 23.9257H38.4317L28.0898 51.2031ZM39.3251 21.553L29.5352 10.3847C30.8375 10.1193 42.6575 7.71065 44.66 7.30246L39.3251 21.553ZM40.9568 21.8352L46.1894 7.85831L53.9076 17.7558L40.9568 21.8352Z" fill="black"/>
</svg>
